<svg xmlns="http://www.w3.org/2000/svg" width="28" height="28" viewBox="0 0 28 28">
    <defs>
        <clipPath id="y5chrwnh8a">
            <path data-name="矩形 1223" style="fill:#fff;stroke:#707070" d="M0 0h28v28H0z"/>
        </clipPath>
        <clipPath id="wjr7s0terb">
            <path data-name="矩形 1227" style="fill:none" d="M0 0h22.355v21.347H0z"/>
        </clipPath>
    </defs>
    <g data-name="蒙版组 14" style="clip-path:url(#y5chrwnh8a)">
        <g data-name="组 1949">
            <g data-name="组 1948" style="clip-path:url(#wjr7s0terb)" transform="translate(2.625 3.501)">
                <path data-name="路径 2245" d="M4.614 14.194a.6.6 0 0 1-.06-1.2l14.9-1.529a.6.6 0 0 1 .061 0 .548.548 0 0 0 .561-.533.6.6 0 0 1 .017-.14l1.58-6.565a.561.561 0 0 0-.559-.476h-.021l-14.432-.5a.6.6 0 0 1 .042-1.2l14.423.5a1.75 1.75 0 0 1 1.751 1.733.6.6 0 0 1-.017.14l-1.586 6.586a1.75 1.75 0 0 1-1.726 1.654L4.676 14.191a.608.608 0 0 1-.062.003z" transform="translate(-.577 -.332)" style="fill:#4d4d4d"/>
                <path data-name="直线 207" d="M0 1.129A.6.6 0 0 1-.6.55a.6.6 0 0 1 .579-.62L15.092-.6a.6.6 0 0 1 .621.579.6.6 0 0 1-.579.621L.021 1.129z" transform="translate(5.334 7.034)" style="fill:#4d4d4d"/>
                <path data-name="直线 208" d="M0 9.39a.6.6 0 0 1-.152-.02.6.6 0 0 1-.429-.732L1.708-.151a.6.6 0 0 1 .732-.43.6.6 0 0 1 .43.732L.581 8.941A.6.6 0 0 1 0 9.39z" transform="translate(15.704 3.241)" style="fill:#4d4d4d"/>
                <path data-name="直线 209" d="M0 9.516A.6.6 0 0 1-.14 9.5a.6.6 0 0 1-.444-.723L1.554-.14a.6.6 0 0 1 .723-.444.6.6 0 0 1 .444.724L.583 9.055A.6.6 0 0 1 0 9.516z" transform="translate(11.671 3.116)" style="fill:#4d4d4d"/>
                <path data-name="直线 210" d="M0 10.062a.6.6 0 0 1-.142-.017.6.6 0 0 1-.441-.725L1.706-.141a.6.6 0 0 1 .724-.442.6.6 0 0 1 .442.724L.583 9.6a.6.6 0 0 1-.583.462z" transform="translate(7.311 2.57)" style="fill:#4d4d4d"/>
                <path data-name="路径 2246" d="M2.936 12.513a.6.6 0 0 1-.584-.738l2.271-9.612a.9.9 0 0 0-.909-.813H.75a.6.6 0 1 1 0-1.2h2.964a2.1 2.1 0 0 1 2.111 2.073.6.6 0 0 1-.016.138L3.52 12.05a.6.6 0 0 1-.584.463z" transform="translate(-.094 -.094)" style="fill:#4d4d4d"/>
                <path data-name="路径 2247" d="M19.281 17.691 4.99 17.656a3.432 3.432 0 0 1-2.9-1.262 1.968 1.968 0 0 1 .059-2.007l.855-2.99a.6.6 0 1 1 1.154.33l-.872 3.05a.6.6 0 0 1-.049.121c-.3.563-.162.8-.115.882a2.408 2.408 0 0 0 1.867.676l14.291.035a.6.6 0 0 1 0 1.2z" transform="translate(-.306 -1.446)" style="fill:#4d4d4d"/>
                <path data-name="椭圆 44" d="M1.953-.6a2.532 2.532 0 0 1 2.553 2.5 2.532 2.532 0 0 1-2.553 2.5A2.532 2.532 0 0 1-.6 1.9 2.532 2.532 0 0 1 1.953-.6zm0 3.81A1.331 1.331 0 0 0 3.306 1.9 1.331 1.331 0 0 0 1.953.6 1.331 1.331 0 0 0 .6 1.9a1.331 1.331 0 0 0 1.353 1.31z" transform="translate(3.141 16.881)" style="fill:#4d4d4d"/>
                <path data-name="椭圆 45" d="M1.953-.6a2.532 2.532 0 0 1 2.553 2.5 2.532 2.532 0 0 1-2.553 2.5A2.532 2.532 0 0 1-.6 1.9 2.532 2.532 0 0 1 1.953-.6zm0 3.81A1.331 1.331 0 0 0 3.306 1.9 1.331 1.331 0 0 0 1.953.6 1.331 1.331 0 0 0 .6 1.9a1.331 1.331 0 0 0 1.353 1.31z" transform="translate(13.778 16.881)" style="fill:#4d4d4d"/>
            </g>
        </g>
    </g>
</svg>
