<svg xmlns="http://www.w3.org/2000/svg" width="28" height="28" viewBox="0 0 28 28">
    <defs>
        <clipPath id="hay7zk8lba">
            <path data-name="矩形 1223" style="fill:#fff;stroke:#707070" d="M0 0h28v28H0z"/>
        </clipPath>
        <clipPath id="zxmng3q8vb">
            <path data-name="矩形 1225" style="fill:none" d="M0 0h22.913v23.978H0z"/>
        </clipPath>
    </defs>
    <g data-name="蒙版组 14" style="clip-path:url(#hay7zk8lba)">
        <g data-name="组 1945">
            <g data-name="组 1944" style="clip-path:url(#zxmng3q8vb)" transform="translate(2.625 1.751)">
                <path data-name="椭圆 42" d="M3.419-.6A4.019 4.019 0 1 1-.6 3.419 4.023 4.023 0 0 1 3.419-.6zm0 6.837A2.819 2.819 0 1 0 .6 3.419a2.822 2.822 0 0 0 2.819 2.818z" transform="translate(9.682 6.393)" style="fill:#4d4d4d"/>
                <path data-name="路径 2237" d="M14.706 12.808a1.859 1.859 0 1 0-1.859-1.859 1.862 1.862 0 0 0 1.859 1.859" transform="translate(-1.606 -1.137)" style="fill:#4d4d4d"/>
                <path data-name="路径 2238" d="M5.09 15.732a.411.411 0 0 0-.092.01 2.665 2.665 0 0 0-2.031 2.1.415.415 0 0 0 .065.312.41.41 0 0 0 .267.175.4.4 0 0 0 .079.008.418.418 0 0 0 .409-.337 1.828 1.828 0 0 1 1.395-1.443.418.418 0 0 0 .315-.5.42.42 0 0 0-.407-.325" transform="translate(-.37 -1.967)" style="fill:#4d4d4d"/>
                <path data-name="路径 2239" d="M15 19.662h-3.06v-1.2h2.86l.325-2.248.411-.129a6.408 6.408 0 0 0 1.171-.485l.379-.2 1.824 1.36 1.608-1.608-1.361-1.822.2-.377a6.54 6.54 0 0 0 .486-1.174l.122-.408 2.254-.327V8.769l-2.254-.327-.123-.41a6.533 6.533 0 0 0-.485-1.172l-.2-.374 1.361-1.826-1.609-1.608-1.822 1.361-.377-.2a6.432 6.432 0 0 0-1.173-.486l-.41-.12L14.8 1.35h-2.274L12.2 3.607l-.414.122a6.417 6.417 0 0 0-1.167.484l-.379.2-1.822-1.361L6.81 4.66l1.363 1.826-.205.378a6.527 6.527 0 0 0-.483 1.17l-.122.408-2.253.327v2.037h-1.2v-2.24a.972.972 0 0 1 .826-.956l1.707-.248a7.753 7.753 0 0 1 .315-.762L5.727 5.216a.972.972 0 0 1 .091-1.262l1.894-1.893a.966.966 0 0 1 1.262-.091L10.354 3a7.641 7.641 0 0 1 .766-.317l.247-1.705a.973.973 0 0 1 .957-.828H15a.973.973 0 0 1 .957.827l.247 1.707a7.645 7.645 0 0 1 .769.316l1.381-1.031a.966.966 0 0 1 1.261.091l1.894 1.893a.972.972 0 0 1 .091 1.263L20.569 6.6a7.756 7.756 0 0 1 .317.766l1.706.247a.972.972 0 0 1 .827.956v2.679a.97.97 0 0 1-.829.956l-1.7.247a7.754 7.754 0 0 1-.317.766L21.6 14.6a.972.972 0 0 1-.091 1.262l-1.894 1.894a.967.967 0 0 1-1.262.09l-1.38-1.031a7.62 7.62 0 0 1-.766.317l-.247 1.705a.973.973 0 0 1-.96.825z" transform="translate(-.563 -.094)" style="fill:#4d4d4d"/>
                <path data-name="椭圆 43" d="M5.04-.6A5.64 5.64 0 1 1-.6 5.04 5.646 5.646 0 0 1 5.04-.6zm0 10.08A4.44 4.44 0 1 0 .6 5.04a4.445 4.445 0 0 0 4.44 4.44z" transform="translate(.657 11.471)" style="fill:#4d4d4d"/>
                <path data-name="直线 206" d="M2.913 3.512a.6.6 0 0 1-.424-.176L-.424.424a.6.6 0 0 1 0-.849.6.6 0 0 1 .849 0l2.912 2.913a.6.6 0 0 1-.424 1.024z" transform="translate(9.101 20.409)" style="fill:#4d4d4d"/>
            </g>
        </g>
    </g>
</svg>
