<svg xmlns="http://www.w3.org/2000/svg" width="28" height="28" viewBox="0 0 28 28">
    <defs>
        <clipPath id="3z69i8hjja">
            <path data-name="矩形 1223" style="fill:#fff;stroke:#707070" d="M0 0h28v28H0z"/>
        </clipPath>
        <clipPath id="i93gkd9s4b">
            <path data-name="矩形 1229" style="fill:none" d="M0 0h17.516v23.751H0z"/>
        </clipPath>
    </defs>
    <g data-name="蒙版组 14" style="clip-path:url(#3z69i8hjja)">
        <g data-name="组 1953">
            <g data-name="组 1952" style="clip-path:url(#i93gkd9s4b)" transform="translate(5.25 2.625)">
                <path data-name="路径 2253" d="M13.948 26.069H4.54a2.153 2.153 0 0 1-2.151-2.15V19a.6.6 0 1 1 1.2 0v4.923a.952.952 0 0 0 .951.95h9.408a.951.951 0 0 0 .95-.95v-4.818a.6.6 0 0 1 1.2 0v4.813a2.152 2.152 0 0 1-2.15 2.151z" transform="translate(-.374 -2.374)" style="fill:#4d4d4d"/>
                <path data-name="路径 2254" d="M3.031 7.59a.6.6 0 0 1-.6-.6V2.3A2.152 2.152 0 0 1 4.581.15h9.408a2.152 2.152 0 0 1 2.15 2.15v4.628a.6.6 0 1 1-1.2 0V2.3a.951.951 0 0 0-.951-.95H4.581a.951.951 0 0 0-.95.95v4.69a.6.6 0 0 1-.6.6z" transform="translate(-.379 -.094)" style="fill:#4d4d4d"/>
                <path data-name="直线 212" d="M12.289.6H0V-.6h12.289z" transform="translate(2.87 4.602)" style="fill:#4d4d4d"/>
                <path data-name="直线 213" d="M12.487.6H0V-.6h12.487z" transform="translate(2.454 18.58)" style="fill:#4d4d4d"/>
                <path data-name="直线 214" d="M2.448.6H0A.6.6 0 0 1-.6 0 .6.6 0 0 1 0-.6h2.448a.6.6 0 0 1 .6.6.6.6 0 0 1-.6.6z" transform="translate(7.474 2.582)" style="fill:#4d4d4d"/>
                <path data-name="路径 2255" d="M8.871 22.515h1.66a1.223 1.223 0 1 1 0 2.431h-1.66a1.223 1.223 0 1 1 0-2.431zm1.66 1.431c.2 0 .355-.116.355-.216s-.155-.216-.355-.216h-1.66c-.2 0-.355.116-.355.216s.155.216.355.216z" transform="translate(-1.002 -2.877)" style="fill:#4d4d4d"/>
                <path data-name="路径 2256" d="M16.377 8.84H1.137A1.139 1.139 0 0 0 0 9.978v5.5a1.139 1.139 0 0 0 1.137 1.138h15.24a1.139 1.139 0 0 0 1.138-1.138v-5.5a1.139 1.139 0 0 0-1.138-1.138m-11.94 5.613h-.663L2.1 12.311v2.142h-.738v-3.446h.663L3.7 13.149v-2.142h.739zm3.5 0H5.324v-3.446h2.56v.693H6.063v.665h1.428v.664H6.063v.738h1.87zm4.283 0h-.72l-.7-2.24h-.029l-.7 2.24h-.71l-1.133-3.446h.764l.714 2.314h.024l.713-2.314h.689l.714 2.314h.025l.714-2.314h.763zm3.85-.581a.976.976 0 0 1-.258.337 1.3 1.3 0 0 1-.411.232 1.634 1.634 0 0 1-.547.086 1.855 1.855 0 0 1-.584-.083 2.04 2.04 0 0 1-.416-.187 1.344 1.344 0 0 1-.33-.271l.493-.492a1.049 1.049 0 0 0 .212.187 1.26 1.26 0 0 0 .253.125.987.987 0 0 0 .347.057.666.666 0 0 0 .431-.114.351.351 0 0 0 .135-.28.27.27 0 0 0-.128-.234 1.518 1.518 0 0 0-.32-.155 18.81 18.81 0 0 0-.413-.143 1.887 1.887 0 0 1-.414-.194 1.073 1.073 0 0 1-.32-.311.862.862 0 0 1-.128-.49.909.909 0 0 1 .086-.386.959.959 0 0 1 .242-.323 1.2 1.2 0 0 1 .394-.219 1.6 1.6 0 0 1 .529-.081 1.584 1.584 0 0 1 .5.073 1.772 1.772 0 0 1 .362.163 1.52 1.52 0 0 1 .29.231l-.493.493a1.063 1.063 0 0 0-.172-.148 1.2 1.2 0 0 0-.2-.1.713.713 0 0 0-.266-.046.629.629 0 0 0-.4.1.308.308 0 0 0-.118.246.27.27 0 0 0 .128.234 1.518 1.518 0 0 0 .32.155c.128.045.266.094.414.143a1.9 1.9 0 0 1 .413.194 1.063 1.063 0 0 1 .32.311.862.862 0 0 1 .128.49.944.944 0 0 1-.088.4" transform="translate(0 -1.105)" style="fill:#4d4d4d"/>
            </g>
        </g>
    </g>
</svg>
