<svg xmlns="http://www.w3.org/2000/svg" width="28" height="28" viewBox="0 0 28 28">
    <defs>
        <clipPath id="9j0xihdzva">
            <path data-name="矩形 1223" style="fill:#fff;stroke:#707070" d="M0 0h28v28H0z"/>
        </clipPath>
        <clipPath id="74ytw2ltdb">
            <path data-name="矩形 1226" style="fill:none" d="M0 0h24.348v19.544H0z"/>
        </clipPath>
    </defs>
    <g data-name="蒙版组 14" style="clip-path:url(#9j0xihdzva)">
        <g data-name="组 1947">
            <g data-name="组 1946" style="clip-path:url(#74ytw2ltdb)" transform="translate(1.75 4.375)">
                <path data-name="路径 2240" d="M25.126 15.129a.6.6 0 0 1-.6-.6V3.862a.032.032 0 0 0-.033-.033h-5.3a.6.6 0 0 1 0-1.2h5.3a1.234 1.234 0 0 1 1.233 1.233v10.667a.6.6 0 0 1-.6.6z" transform="translate(-2.399 -.404)" style="fill:#4d4d4d"/>
                <path data-name="路径 2241" d="M2.454 15.14a.6.6 0 0 1-.6-.6V3.956a1.234 1.234 0 0 1 1.233-1.233h4.766a.6.6 0 0 1 0 1.2H3.087a.033.033 0 0 0-.033.033V14.54a.6.6 0 0 1-.6.6z" transform="translate(-.307 -.416)" style="fill:#4d4d4d"/>
                <path data-name="路径 2242" d="M22.637 21.769H2.191c-.412 0-.7-.3-1.347-1.41-.328-.559-.615-1.115-.627-1.138a.6.6 0 0 1-.067-.276 1.205 1.205 0 0 1 1.123-1.295h21.989a1.205 1.205 0 0 1 1.123 1.295.6.6 0 0 1-.04.216c-.009.023-.224.578-.479 1.143-.457 1.013-.743 1.465-1.229 1.465zM2.4 20.569h19.993a14.361 14.361 0 0 0 .781-1.708v-.011H1.378A15.53 15.53 0 0 0 2.4 20.569z" transform="translate(-.094 -2.281)" style="fill:#4d4d4d"/>
                <path data-name="路径 2243" d="M17.967 14.777H8.411a1.234 1.234 0 0 1-1.233-1.233v-1.415a.6.6 0 1 1 1.2 0v1.416a.034.034 0 0 0 .033.033h9.557a.034.034 0 0 0 .032-.033v-1.416a.6.6 0 1 1 1.2 0v1.416a1.234 1.234 0 0 1-1.233 1.232z" transform="translate(-.972 -1.516)" style="fill:#4d4d4d"/>
                <path data-name="路径 2244" d="M8.388 6.131a.519.519 0 0 0 .193.4l4.35 4.166a.522.522 0 0 0 .361.145.5.5 0 0 0 .356-.145l4.38-4.2a.49.49 0 0 0 .157-.353.511.511 0 0 0-.144-.369.522.522 0 0 0-.373-.156H16.1V.51a.513.513 0 0 0-.513-.51h-4.595a.507.507 0 0 0-.515.51v5.111H8.91a.517.517 0 0 0-.522.51" transform="translate(-1.048)" style="fill:#4d4d4d"/>
            </g>
        </g>
    </g>
</svg>
