<svg xmlns="http://www.w3.org/2000/svg" width="28" height="28" viewBox="0 0 28 28">
    <defs>
        <clipPath id="zjwdoox59a">
            <path data-name="矩形 1223" style="fill:#fff;stroke:#707070" d="M0 0h28v28H0z"/>
        </clipPath>
        <clipPath id="nfsi4g6vbb">
            <path data-name="矩形 1228" style="fill:none" d="M0 0h21.6v19.923H0z"/>
        </clipPath>
    </defs>
    <g data-name="蒙版组 14" style="clip-path:url(#zjwdoox59a)">
        <g data-name="组 1951">
            <g data-name="组 1950" style="clip-path:url(#nfsi4g6vbb)" transform="translate(3.5 4.375)">
                <path data-name="路径 2248" d="M2.87 12.741a.329.329 0 0 0-.32-.26.343.343 0 0 0-.066.007l-2.224.468a.335.335 0 0 0-.207.142.325.325 0 0 0-.045.246l1.38 6.556a.328.328 0 0 0 .319.259.345.345 0 0 0 .067-.007L4 19.682a.33.33 0 0 0 .207-.141.325.325 0 0 0 .045-.246z" transform="translate(0 -1.56)" style="fill:#4d4d4d"/>
                <path data-name="路径 2249" d="M12.607 4.494a1.915 1.915 0 0 1 1.832 2.025 1.915 1.915 0 0 1-1.832 2.024 1.938 1.938 0 0 1-1.832-2.024 1.938 1.938 0 0 1 1.832-2.025zm0 2.85c.354 0 .632-.362.632-.825s-.278-.825-.632-.825a.759.759 0 0 0-.632.825.758.758 0 0 0 .632.825z" transform="translate(-1.422 -.637)" style="fill:#4d4d4d"/>
                <path data-name="椭圆 46" d="M1.18-.6a1.882 1.882 0 0 1 1.78 1.965A1.882 1.882 0 0 1 1.18 3.33 1.882 1.882 0 0 1-.6 1.365 1.882 1.882 0 0 1 1.18-.6zm0 2.73c.315 0 .58-.35.58-.765S1.495.6 1.18.6.6.95.6 1.365s.266.765.58.765z" transform="translate(14.861 8.736)" style="fill:#4d4d4d"/>
                <path data-name="直线 211" d="M0 6.266a.6.6 0 0 1-.328-.1.6.6 0 0 1-.172-.829L3.2-.328A.6.6 0 0 1 4.033-.5a.6.6 0 0 1 .174.831L.5 5.994a.6.6 0 0 1-.5.272z" transform="translate(11.866 4.829)" style="fill:#4d4d4d"/>
                <path data-name="路径 2250" d="M20.673 12.05a.6.6 0 0 1-.521-.9A6.557 6.557 0 1 0 8.026 9.231a.6.6 0 1 1-1.176.24 7.759 7.759 0 1 1 14.344 2.276.6.6 0 0 1-.521.303z" transform="translate(-.912 -.094)" style="fill:#4d4d4d"/>
                <path data-name="路径 2251" d="M14.24 18.036a6.79 6.79 0 0 1-1.046-.09l-.053-.011-3.565-.892.291-1.164 3.538.885c1.315.2 1.712-.074 1.756-.171v-.021l.011-.064c.047-.273-.88-.758-1.8-.943l-.028-.006a17.7 17.7 0 0 1-3.534-2.233 3.646 3.646 0 0 0-3.49-.442 6.723 6.723 0 0 0-1.843.951l-.742-.943a7.835 7.835 0 0 1 2.175-1.136 4.851 4.851 0 0 1 4.622.612 17.575 17.575 0 0 0 3.089 2.022c.381.078 2.97.671 2.741 2.276a1.273 1.273 0 0 1-.44.869 2.464 2.464 0 0 1-1.682.501z" transform="translate(-.513 -1.505)" style="fill:#4d4d4d"/>
                <path data-name="路径 2252" d="M12.916 21.913a5.57 5.57 0 0 1-.524-.025l-.077-.008-7.2-2.66.416-1.126 7.052 2.606a3.836 3.836 0 0 0 .567 0c.629-.24 5.706-2.229 7.736-4.727a2.113 2.113 0 0 0 .342-.74 3 3 0 0 0-1.3.185l-3.882 1.573-.451-1.112 3.94-1.6.03-.009c.887-.257 2.129-.511 2.666.25s-.152 1.85-.377 2.163l-.02.026c-2.355 2.917-8.088 5.049-8.331 5.138l-.06.022-.063.009a3.39 3.39 0 0 1-.464.035z" transform="translate(-.665 -1.828)" style="fill:#4d4d4d"/>
            </g>
        </g>
    </g>
</svg>
